<?xml version="1.0" encoding="utf-8"?>
<!-- Generator: Adobe Illustrator 16.0.0, SVG Export Plug-In . SVG Version: 6.00 Build 0)  -->
<!DOCTYPE svg PUBLIC "-//W3C//DTD SVG 1.1//EN" "http://www.w3.org/Graphics/SVG/1.1/DTD/svg11.dtd">
<svg version="1.1" id="Layer_1" xmlns="http://www.w3.org/2000/svg" xmlns:xlink="http://www.w3.org/1999/xlink" x="0px" y="0px"
	 width="204.672px" height="204.67px" viewBox="0 0 204.672 204.67" enable-background="new 0 0 204.672 204.67"
	 xml:space="preserve">
<g>
	<defs>
		<rect id="SVGID_1_" x="0" y="0" width="2417.936" height="204.672"/>
	</defs>
	<clipPath id="SVGID_2_">
		<use xlink:href="#SVGID_1_"  overflow="visible"/>
	</clipPath>
	<path clip-path="url(#SVGID_2_)" fill="#FFFFFF" d="M149.239,204.67H55.434C24.868,204.67,0,179.807,0,149.239V55.433
		C0,24.864,24.868,0,55.434,0h93.805c30.569,0,55.433,24.864,55.433,55.433v93.808C204.672,179.807,179.808,204.67,149.239,204.67
		 M55.434,17.057c-21.162,0-38.377,17.215-38.377,38.376v93.808c0,21.161,17.215,38.375,38.377,38.375h93.805
		c21.16,0,38.377-17.214,38.377-38.375V55.433c0-21.161-17.219-38.376-38.377-38.376H55.434z"/>
	<path clip-path="url(#SVGID_2_)" fill="#FFFFFF" d="M102.336,153.502c-28.215,0-51.168-22.955-51.168-51.167
		c0-28.218,22.955-51.168,51.168-51.168s51.168,22.95,51.168,51.168C153.504,130.547,130.549,153.502,102.336,153.502
		 M102.336,68.225c-18.809,0-34.11,15.302-34.11,34.111c0,18.813,15.301,34.111,34.11,34.111c18.807,0,34.111-15.299,34.111-34.111
		C136.447,83.526,121.15,68.225,102.336,68.225"/>
	<path clip-path="url(#SVGID_2_)" fill="#FFFFFF" d="M156.704,36.245c6.475,0,11.723,5.25,11.723,11.725
		c0,6.476-5.248,11.725-11.723,11.725c-6.478,0-11.727-5.249-11.727-11.725C144.977,41.495,150.226,36.245,156.704,36.245"/>
</g>
</svg>
