<?xml version="1.0" encoding="utf-8"?>
<!-- Generator: Adobe Illustrator 16.0.0, SVG Export Plug-In . SVG Version: 6.00 Build 0)  -->
<!DOCTYPE svg PUBLIC "-//W3C//DTD SVG 1.1//EN" "http://www.w3.org/Graphics/SVG/1.1/DTD/svg11.dtd">
<svg version="1.1" id="Layer_1" xmlns="http://www.w3.org/2000/svg" xmlns:xlink="http://www.w3.org/1999/xlink" x="0px" y="0px"
	 width="204.662px" height="204.661px" viewBox="0 0 204.662 204.661" enable-background="new 0 0 204.662 204.661"
	 xml:space="preserve">
<g>
	<defs>
		<rect id="SVGID_1_" x="-1639.52" y="-0.005" width="2417.936" height="204.672"/>
	</defs>
	<clipPath id="SVGID_2_">
		<use xlink:href="#SVGID_1_"  overflow="visible"/>
	</clipPath>
	<path clip-path="url(#SVGID_2_)" fill="#FFFFFF" d="M51.467,194.264H13.258V71.451h38.209V194.264z M32.375,54.67
		c-12.26,0-22.145-9.917-22.145-22.138c0-12.215,9.885-22.135,22.145-22.135c12.203,0,22.119,9.916,22.119,22.135
		C54.494,44.754,44.582,54.67,32.375,54.67 M194.432,194.264h-38.168v-59.724c0-14.241-0.246-32.563-19.834-32.563
		c-19.863,0-22.893,15.516-22.893,31.544v60.742H75.412V71.451H112V88.24h0.525c5.092-9.657,17.539-19.834,36.115-19.834
		c38.643,0,45.783,25.422,45.783,58.505L194.432,194.264z"/>
</g>
</svg>
