<?xml version="1.0" encoding="utf-8"?>
<!-- Generator: Adobe Illustrator 25.4.1, SVG Export Plug-In . SVG Version: 6.00 Build 0)  -->
<svg version="1.1" id="Camada_1" xmlns="http://www.w3.org/2000/svg" xmlns:xlink="http://www.w3.org/1999/xlink" x="0px" y="0px"
	 viewBox="0 0 1065 236.5" style="enable-background:new 0 0 1065 236.5;" xml:space="preserve">
<style type="text/css">
	.st0{fill:#FFFFFF;}
	.st1{fill:#C62F35;}
</style>
<g>
	<path class="st0" d="M471.7,3.9h-28.6l-37.4,94.3L392.9,7.9c-0.3-2.1-1.6-4-4.6-4h-25.7l-36.4,95.3L311.8,7.9c-0.4-2.4-1.5-4-4.7-4
		h-42.8c-3,0-3.6,3.3,0,3.9c8.3,1.5,15.4,6.5,17.7,20.4l18.1,102.1c0.7,3.9,2.8,6.2,7.7,6.2h32.2l31.3-85l9.9,78.8
		c0.5,3.9,2.5,6.2,7.4,6.2h32.4L474.2,8.5C475.1,6.4,475.1,3.9,471.7,3.9"/>
	<path class="st0" d="M745.7,3.9H695c-3,0-3.6,3.3-0.4,3.9c6.7,1.4,14.2,8.6,8.8,20l-48.9,102.5c-1.9,3.9-1.2,6.2,3.7,6.2h27.4
		l10.2-23.2h51.5l4.1,17c0.9,3.9,3.2,6.2,8.1,6.2h27.5l-35.3-128C750.8,5.6,749.4,3.9,745.7,3.9 M707.2,87.2l21.7-49.6l12,49.6
		H707.2z"/>
	<path class="st0" d="M921.4,48.2c0-40-25.9-44.3-55.5-44.3h-65.5c-3,0-3.7,3.3-0.2,3.9c7.9,1.5,14.8,7.2,13.2,20.8l-12.1,101.8
		c-0.5,3.9,1,6.2,5.9,6.2h26.4l4.3-36.2h25.8l16.2,30c2.1,4,5.1,6.2,10,6.2h28l-22.7-42.2C915.3,84.9,921.4,65.7,921.4,48.2
		 M872.1,73.4h-30.9l5-41.7h22.2c16.6,0,19.9,5.9,19.9,18.4C888.3,64.7,883.1,73.4,872.1,73.4"/>
	<path class="st0" d="M995,3.9h-60.2c-3,0-3.7,3.3-0.2,3.9c7.9,1.5,14.8,7.1,13.2,20.8l-12.1,101.8c-0.5,3.9,1,6.2,5.9,6.2h41.8
		c48.1,0,81.5-28.4,81.5-76.4C1065,25.6,1045.3,3.9,995,3.9 M985.8,107.8h-14.3l9.1-76h16.5c26.1,0,33.6,11.3,33.6,28.7
		C1030.6,91.1,1014.8,107.8,985.8,107.8"/>
	<path class="st0" d="M654,7.9c0.4-2.5-1.1-4-3.5-4H549l-2.6,21.6c-0.5,3.9,1,6.2,5.9,6.2h56.1l-72.3,80.2l-2.2,18.5
		c-0.5,4,1,6.2,5.9,6.2H640l3-24.8c0.3-2.6-1.1-4-3.5-4h-59.6l71.6-79L654,7.9z"/>
	<path class="st0" d="M521.9,3.9h-29.1l-15.1,126.5c-0.5,3.9,1,6.2,5.9,6.2H510L525.4,7.9C525.8,5.4,524.3,3.9,521.9,3.9"/>
	<path class="st0" d="M300,183.2c-3.3,0-5.6,1-7.1,2.9c-1.4,1.9-2.2,5.1-2.2,9.7v0.6c0,4.7,0.7,8,2.2,10.1c1.5,2.1,3.9,3.1,7.2,3.1
		c2.9,0,5.1-1.1,6.6-3.4c1.5-2.3,2.2-5.6,2.2-9.9C308.9,187.6,305.9,183.2,300,183.2 M302.1,176.6c4.8,0,8.5,1.7,11.2,5.2
		c2.7,3.5,4,8.3,4,14.6c0,6.3-1.4,11.2-4,14.6c-2.7,3.5-6.5,5.2-11.2,5.2c-4.8,0-8.6-1.7-11.3-5.2h-0.6l-1.5,4.5h-6.1v-53.8h8.1
		v12.8c0,0.9-0.1,2.4-0.1,4.2c-0.1,1.9-0.2,3.1-0.2,3.6h0.3C293.2,178.5,297,176.6,302.1,176.6"/>
	<path class="st0" d="M320.8,177.3h8.9l7.8,21.7c1.2,3.1,2,6,2.4,8.7h0.3c0.2-1.3,0.6-2.8,1.1-4.6c0.6-1.8,3.5-10.4,8.8-25.8h8.8
		l-16.4,43.3c-3,8-7.9,11.9-14.9,11.9c-1.8,0-3.6-0.2-5.3-0.6v-6.4c1.2,0.3,2.6,0.4,4.2,0.4c3.9,0,6.7-2.3,8.3-6.8l1.4-3.6
		L320.8,177.3z"/>
	<path class="st0" d="M392.2,189.6h4.4c4.2,0,7.4-0.7,9.3-2.2c2-1.5,3-3.8,3-6.9c0-2.9-0.9-5.1-2.7-6.5c-1.8-1.4-4.5-2.1-8.3-2.1
		h-5.7V189.6z M417.4,180.2c0,5.3-1.7,9.3-5.2,12.1c-3.5,2.8-8.4,4.2-14.8,4.2h-5.3v18.9h-8.3v-50.6h14.6c6.3,0,11.1,1.3,14.2,3.9
		C415.8,171.4,417.4,175.2,417.4,180.2"/>
	<path class="st0" d="M440.4,182.7c-2.6,0-4.7,0.8-6.2,2.5c-1.6,1.6-2.5,4-2.8,7.2h17.4c0-3.2-0.8-5.6-2.3-7.2
		C445,183.5,442.9,182.7,440.4,182.7 M441.8,216.2c-6,0-10.6-1.7-14-5.2c-3.4-3.5-5-8.2-5-14.3c0-6.2,1.6-11.2,4.7-14.7
		c3.1-3.6,7.4-5.4,12.8-5.4c5,0,9,1.5,12,4.6c2.9,3.1,4.4,7.3,4.4,12.7v4.4h-25.5c0.1,3.7,1.1,6.6,3,8.6c1.9,2,4.5,3,8,3
		c2.3,0,4.4-0.2,6.3-0.6c1.9-0.4,4-1.1,6.3-2.1v6.6c-2,0.9-4,1.6-6,2C446.8,216,444.5,216.2,441.8,216.2"/>
	<path class="st0" d="M477.8,210c3,0,5.3-0.8,7.1-2.5c1.8-1.6,2.7-4,2.7-6.9v-3.3l-4.9,0.2c-3.8,0.1-6.6,0.8-8.4,1.9
		c-1.7,1.1-2.6,2.9-2.6,5.2c0,1.7,0.5,3,1.5,4C474.2,209.5,475.8,210,477.8,210 M489.9,215.5l-1.6-5.3H488c-1.8,2.3-3.7,3.9-5.6,4.8
		c-1.9,0.8-4.3,1.3-7.2,1.3c-3.8,0-6.7-1-8.8-3c-2.1-2-3.2-4.9-3.2-8.6c0-3.9,1.5-6.9,4.4-8.9c2.9-2,7.4-3.1,13.4-3.3l6.6-0.2v-2
		c0-2.4-0.6-4.3-1.7-5.5c-1.1-1.2-2.9-1.8-5.3-1.8c-2,0-3.8,0.3-5.6,0.9c-1.8,0.6-3.5,1.3-5.2,2l-2.6-5.8c2.1-1.1,4.3-1.9,6.8-2.5
		c2.5-0.6,4.8-0.8,7-0.8c4.9,0,8.5,1.1,11,3.2c2.5,2.1,3.7,5.5,3.7,10v25.8H489.9z"/>
	<path class="st0" d="M526.5,176.6c1.6,0,3,0.1,4.1,0.4l-0.8,7.6c-1.2-0.3-2.4-0.4-3.6-0.4c-3.3,0-5.9,1.1-7.9,3.2
		c-2,2.1-3,4.9-3,8.3v20h-8.1v-38.3h6.4l1.1,6.7h0.4c1.3-2.3,2.9-4.1,5-5.4C521.9,177.2,524.1,176.6,526.5,176.6"/>
	<path class="st0" d="M563.3,204.6c0,3.7-1.4,6.6-4.1,8.6c-2.7,2-6.6,3-11.7,3c-5.1,0-9.2-0.8-12.3-2.3v-7c4.5,2.1,8.7,3.1,12.6,3.1
		c5,0,7.5-1.5,7.5-4.5c0-1-0.3-1.8-0.8-2.4c-0.6-0.6-1.5-1.3-2.7-2c-1.3-0.7-3-1.5-5.3-2.4c-4.4-1.7-7.4-3.4-8.9-5.1
		c-1.6-1.7-2.3-3.9-2.3-6.6c0-3.3,1.3-5.8,4-7.6c2.6-1.8,6.2-2.7,10.8-2.7c4.5,0,8.8,0.9,12.8,2.7l-2.6,6.1
		c-4.1-1.7-7.6-2.6-10.4-2.6c-4.3,0-6.4,1.2-6.4,3.7c0,1.2,0.6,2.2,1.7,3c1.1,0.8,3.6,2,7.3,3.4c3.2,1.2,5.5,2.3,6.9,3.4
		c1.4,1,2.5,2.2,3.2,3.5C563,201.2,563.3,202.8,563.3,204.6"/>
	<path class="st0" d="M578.2,196.3c0,8.8,3.3,13.3,9.8,13.3c6.5,0,9.7-4.4,9.7-13.3c0-8.7-3.3-13.1-9.8-13.1c-3.4,0-5.9,1.1-7.4,3.4
		C579,188.9,578.2,192.1,578.2,196.3 M606,196.3c0,6.2-1.6,11.1-4.8,14.6c-3.2,3.5-7.7,5.3-13.4,5.3c-3.6,0-6.7-0.8-9.5-2.4
		s-4.9-3.9-6.3-7c-1.5-3-2.2-6.5-2.2-10.5c0-6.2,1.6-11,4.8-14.5c3.2-3.5,7.7-5.2,13.5-5.2c5.5,0,9.9,1.8,13.1,5.4
		C604.4,185.5,606,190.3,606,196.3"/>
	<path class="st0" d="M649,215.5h-8.2V192c0-2.9-0.6-5.2-1.8-6.6c-1.2-1.5-3.1-2.2-5.7-2.2c-3.4,0-6,1-7.5,3
		c-1.6,2-2.4,5.4-2.4,10.2v19.1h-8.1v-38.3h6.4l1.1,5h0.4c1.1-1.8,2.8-3.2,4.9-4.2c2.1-1,4.5-1.5,7.1-1.5c9.2,0,13.8,4.7,13.8,14
		V215.5z"/>
	<path class="st0" d="M236.5,118.2c0,65.3-52.9,118.2-118.2,118.2C52.9,236.5,0,183.5,0,118.2S52.9,0,118.2,0
		C183.5,0,236.5,52.9,236.5,118.2"/>
	<path class="st1" d="M109.8,139.1c1.1-0.4,0.6-1.3-0.4-1.1c-59.1,12.2-77.7,37-77.7,51.5c0,4.7,1.1,13.2,12.7,21
		c0.6,0.4,1.1,0,0.8-0.7C36.1,180,78.4,150.4,109.8,139.1"/>
	<path class="st1" d="M40,118.5c-22.9,6.1-33.3,6.5-39-2.2c-0.3-0.5-1-0.4-1,0.3c-0.2,9.8,1,25.4,7.1,42.2c0.3,0.8,0.9,0.8,1,0
		C9.8,139,28,125.4,40.4,119.6C41.3,119.2,41.4,118.1,40,118.5"/>
	<path class="st1" d="M118.2,0C63.4,0,21.5,38.4,21.5,61.6c0,13.1,16,14.4,31.3,11.2c-3.7-3.5-5.1-7.9-5.3-11.4c0-0.6,0.6-1,1-0.5
		c3.4,3.4,10.6,6.1,21.6,6.1c27.1,0,48.9-9.2,76.5-9.2c15.2,0,25.8,8.7,30.5,18.6c19.8-1.6,37.8,13.9,37.8,34.6
		c0,4.8-1.3,11.3-4.5,17c-0.5,0.9-1.7,1.2-2.2,0.1c-2.8-6.1-7-9.3-15.3-9.3c-26.9,0-131.1,55.3-131.1,93.9c0,7.7,4.2,13.3,20.8,18.4
		c9.6,2.9,21.8,5.4,35.5,5.4c65.3,0,118.2-52.9,118.2-118.2S183.5,0,118.2,0 M103.9,174.8c-9.3,11.3-13.3,23.5-13.3,31.5
		c0,7.1,1,12.2,5.7,17.9c0.5,0.6,0.1,1.4-0.6,1.2c-14-2.5-19.1-8-19.1-14.9c0-9.3,10.8-24.6,26.4-36.7
		C104.3,172.7,104.9,173.6,103.9,174.8"/>
	<path class="st1" d="M161.9,80.6c-1-1.9-3.8-5.4-9.9-5.4c-8,0-19.2,9.2-20.5,10.4c-0.1,0.1-0.2,0.3-0.2,0.5c0,0.4,0.3,0.7,0.7,0.7
		c0.1,0,0.3,0,0.4-0.1c0.8-0.4,4.8-2.3,9.7-3.9c0.1-0.1,0.3-0.1,0.5-0.1c0.6,0,1.2,0.4,1.4,1c0.5,2.4,2.1,4.4,4.5,5
		c3.5,0.9,7.1-1.5,8.2-5.5c0.1-0.5,0.2-1,0.3-1.5c0-0.1,0.1-0.3,0.2-0.4c0.4-0.3,2.4-0.1,3.1,0.3c0.1,0,0.1,0.1,0.2,0.1
		c0.2,0.1,0.4,0.2,0.6,0.2c0.6,0,1-0.5,1-1C162.1,80.9,162,80.7,161.9,80.6"/>
</g>
</svg>
