<?xml version="1.0" encoding="utf-8"?>
<!-- Generator: Adobe Illustrator 16.0.0, SVG Export Plug-In . SVG Version: 6.00 Build 0)  -->
<!DOCTYPE svg PUBLIC "-//W3C//DTD SVG 1.1//EN" "http://www.w3.org/Graphics/SVG/1.1/DTD/svg11.dtd">
<svg version="1.1" id="Layer_1" xmlns="http://www.w3.org/2000/svg" xmlns:xlink="http://www.w3.org/1999/xlink" x="0px" y="0px"
	 width="524.602px" height="116.416px" viewBox="0 0 524.602 116.416" enable-background="new 0 0 524.602 116.416"
	 xml:space="preserve">
<g>
	<g>
		<defs>
			<rect id="SVGID_1_" x="0" width="524.602" height="116.416"/>
		</defs>
		<clipPath id="SVGID_2_">
			<use xlink:href="#SVGID_1_"  overflow="visible"/>
		</clipPath>
		<g clip-path="url(#SVGID_2_)" enable-background="new    ">
			<path fill="#FFFFFF" d="M248.625,74.571h5.088L243.21,104.56h-5.169L227.58,74.571h5.045l6.257,18.645
				c0.328,0.891,0.677,2.035,1.046,3.438c0.369,1.4,0.609,2.443,0.719,3.127c0.178-1.039,0.451-2.242,0.82-3.609
				s0.67-2.379,0.902-3.037L248.625,74.571z"/>
		</g>
		<g enable-background="new    ">
			<path fill="#FFFFFF" d="M257.879,75.862c0-0.861,0.236-1.523,0.709-1.988c0.471-0.465,1.145-0.697,2.02-0.697
				c0.848,0,1.508,0.232,1.98,0.697c0.471,0.465,0.707,1.127,0.707,1.988c0,0.822-0.236,1.467-0.707,1.939
				c-0.473,0.471-1.133,0.707-1.98,0.707c-0.875,0-1.549-0.236-2.02-0.707C258.115,77.329,257.879,76.685,257.879,75.862z
				 M262.987,104.56h-4.82V81.874h4.82V104.56z"/>
		</g>
		<g enable-background="new    ">
			<path fill="#FFFFFF" d="M282.437,81.464c0.971,0,1.771,0.068,2.399,0.205l-0.472,4.492c-0.684-0.164-1.395-0.246-2.133-0.246
				c-1.929,0-3.491,0.629-4.688,1.887c-1.197,1.258-1.795,2.893-1.795,4.902v11.855h-4.82V81.874h3.773l0.637,4h0.246
				c0.752-1.355,1.733-2.428,2.943-3.221C279.74,81.86,281.042,81.464,282.437,81.464z"/>
			<path fill="#FFFFFF" d="M298.459,101.073c1.176,0,2.352-0.186,3.528-0.555v3.631c-0.533,0.232-1.22,0.428-2.062,0.586
				c-0.841,0.156-1.713,0.234-2.615,0.234c-4.567,0-6.852-2.406-6.852-7.221V85.524h-3.098v-2.133l3.324-1.764l1.641-4.801h2.975
				v5.047h6.461v3.65h-6.461v12.143c0,1.164,0.29,2.021,0.871,2.576C296.754,100.796,297.515,101.073,298.459,101.073z"/>
		</g>
		<g enable-background="new    ">
			<path fill="#FFFFFF" d="M323.57,104.56l-0.677-2.975h-0.246c-0.671,1.055-1.624,1.881-2.862,2.482
				c-1.237,0.602-2.648,0.902-4.235,0.902c-2.749,0-4.8-0.684-6.153-2.051s-2.031-3.439-2.031-6.215v-14.83h4.861v13.988
				c0,1.736,0.355,3.039,1.066,3.908s1.826,1.303,3.344,1.303c2.023,0,3.512-0.605,4.462-1.816c0.95-1.209,1.426-3.236,1.426-6.082
				V81.874h4.841v22.686H323.57z"/>
		</g>
		<g enable-background="new    ">
			<path fill="#FFFFFF" d="M349.482,104.56l-0.964-3.158h-0.164c-1.095,1.381-2.194,2.32-3.303,2.82
				c-1.107,0.498-2.53,0.748-4.267,0.748c-2.229,0-3.969-0.602-5.221-1.805c-1.251-1.203-1.877-2.906-1.877-5.107
				c0-2.338,0.869-4.102,2.605-5.293c1.736-1.189,4.383-1.838,7.938-1.947l3.918-0.123v-1.211c0-1.449-0.339-2.533-1.016-3.252
				c-0.677-0.717-1.727-1.076-3.148-1.076c-1.163,0-2.276,0.172-3.344,0.514c-1.066,0.342-2.093,0.744-3.077,1.209l-1.559-3.445
				c1.23-0.643,2.578-1.131,4.041-1.467s2.844-0.502,4.144-0.502c2.886,0,5.063,0.629,6.533,1.887s2.205,3.234,2.205,5.928v15.281
				H349.482z M342.302,101.278c1.75,0,3.156-0.488,4.216-1.467s1.59-2.35,1.59-4.113v-1.969l-2.913,0.123
				c-2.27,0.082-3.922,0.461-4.953,1.139c-1.033,0.676-1.549,1.713-1.549,3.107c0,1.012,0.301,1.795,0.902,2.35
				C340.197,101.001,341.099,101.278,342.302,101.278z"/>
		</g>
		<g enable-background="new    ">
			<path fill="#FFFFFF" d="M365.485,104.56h-4.82V72.644h4.82V104.56z"/>
			<path fill="#FFFFFF" d="M403.027,96.417c0,2.666-0.965,4.758-2.893,6.277c-1.928,1.518-4.588,2.275-7.979,2.275
				c-3.393,0-6.168-0.525-8.328-1.578v-4.637c1.367,0.643,2.82,1.148,4.358,1.518s2.971,0.555,4.298,0.555
				c1.941,0,3.374-0.369,4.297-1.107s1.385-1.73,1.385-2.975c0-1.121-0.424-2.072-1.271-2.852c-0.849-0.779-2.599-1.703-5.252-2.77
				c-2.734-1.107-4.663-2.371-5.784-3.795c-1.122-1.422-1.683-3.131-1.683-5.127c0-2.504,0.889-4.473,2.667-5.908
				s4.164-2.154,7.159-2.154c2.871,0,5.729,0.629,8.574,1.887l-1.559,4c-2.667-1.121-5.047-1.682-7.139-1.682
				c-1.587,0-2.79,0.346-3.61,1.037c-0.82,0.689-1.231,1.604-1.231,2.738c0,0.779,0.164,1.445,0.493,2
				c0.328,0.553,0.868,1.076,1.62,1.568s2.105,1.143,4.062,1.949c2.202,0.916,3.815,1.771,4.841,2.564s1.777,1.688,2.257,2.686
				C402.788,93.888,403.027,95.063,403.027,96.417z"/>
		</g>
		<g enable-background="new    ">
			<path fill="#FFFFFF" d="M418.686,104.97c-3.433,0-6.041-1.002-7.825-3.004c-1.785-2.004-2.678-4.879-2.678-8.627
				c0-3.814,0.934-6.748,2.801-8.799c1.866-2.051,4.563-3.076,8.092-3.076c2.393,0,4.547,0.443,6.461,1.332l-1.456,3.877
				c-2.038-0.793-3.72-1.189-5.046-1.189c-3.925,0-5.887,2.605-5.887,7.814c0,2.545,0.488,4.455,1.467,5.734
				c0.977,1.279,2.41,1.918,4.297,1.918c2.146,0,4.178-0.533,6.092-1.6v4.205c-0.861,0.506-1.781,0.867-2.759,1.086
				S420.081,104.97,418.686,104.97z"/>
		</g>
		<g enable-background="new    ">
			<path fill="#FFFFFF" d="M451.302,104.56h-4.84V90.612c0-1.752-0.354-3.057-1.057-3.918c-0.705-0.861-1.822-1.293-3.354-1.293
				c-2.025,0-3.512,0.605-4.463,1.814c-0.949,1.211-1.425,3.238-1.425,6.082v11.262h-4.82V72.644h4.82v8.102
				c0,1.299-0.082,2.688-0.246,4.164h0.308c0.656-1.094,1.569-1.941,2.738-2.543c1.17-0.602,2.533-0.902,4.092-0.902
				c5.498,0,8.246,2.768,8.246,8.307V104.56z"/>
			<path fill="#FFFFFF" d="M479.099,93.175c0,3.707-0.951,6.6-2.852,8.678s-4.547,3.117-7.938,3.117
				c-2.121,0-3.994-0.479-5.621-1.436s-2.879-2.332-3.754-4.123s-1.313-3.869-1.313-6.236c0-3.678,0.943-6.549,2.83-8.615
				c1.888-2.064,4.547-3.096,7.98-3.096c3.281,0,5.879,1.055,7.795,3.168C478.142,86.745,479.099,89.593,479.099,93.175z
				 M462.587,93.175c0,5.238,1.935,7.857,5.806,7.857c3.828,0,5.743-2.619,5.743-7.857c0-5.182-1.929-7.773-5.784-7.773
				c-2.024,0-3.491,0.67-4.4,2.01C463.041,88.753,462.587,90.673,462.587,93.175z"/>
			<path fill="#FFFFFF" d="M505.726,93.175c0,3.707-0.95,6.6-2.851,8.678c-1.901,2.078-4.548,3.117-7.938,3.117
				c-2.12,0-3.993-0.479-5.621-1.436c-1.627-0.957-2.878-2.332-3.753-4.123c-0.876-1.791-1.313-3.869-1.313-6.236
				c0-3.678,0.943-6.549,2.831-8.615c1.888-2.064,4.547-3.096,7.979-3.096c3.281,0,5.88,1.055,7.795,3.168
				C504.769,86.745,505.726,89.593,505.726,93.175z M489.215,93.175c0,5.238,1.935,7.857,5.805,7.857
				c3.828,0,5.744-2.619,5.744-7.857c0-5.182-1.929-7.773-5.785-7.773c-2.023,0-3.49,0.67-4.4,2.01
				C489.669,88.753,489.215,90.673,489.215,93.175z"/>
		</g>
		<g enable-background="new    ">
			<path fill="#FFFFFF" d="M517.304,104.56h-4.82V72.644h4.82V104.56z"/>
		</g>
	</g>
	<g>
		<defs>
			<rect id="SVGID_3_" x="0" width="524.602" height="116.416"/>
		</defs>
		<clipPath id="SVGID_4_">
			<use xlink:href="#SVGID_3_"  overflow="visible"/>
		</clipPath>
		<path clip-path="url(#SVGID_4_)" fill="#FF282F" d="M465.054,31.626c0,17.467-14.16,31.626-31.626,31.626
			c-17.469,0-31.628-14.159-31.628-31.626C401.801,14.16,415.96,0,433.428,0C450.894,0,465.054,14.16,465.054,31.626"/>
	</g>
	<g>
		<defs>
			<rect id="SVGID_5_" x="0" width="524.602" height="116.416"/>
		</defs>
		<clipPath id="SVGID_6_">
			<use xlink:href="#SVGID_5_"  overflow="visible"/>
		</clipPath>
		
			<path clip-path="url(#SVGID_6_)" fill="none" stroke="#FFFFFF" stroke-width="5.711" stroke-linecap="round" stroke-miterlimit="10" d="
			M444.916,16.508c4.519,3.427,7.436,8.853,7.436,14.962c0,10.363-8.402,18.766-18.766,18.766c-10.364,0-18.768-8.402-18.768-18.766
			c0-6.636,3.443-12.466,8.64-15.803"/>
	</g>
	<g>
		<defs>
			<rect id="SVGID_7_" x="0" width="524.602" height="116.416"/>
		</defs>
		<clipPath id="SVGID_8_">
			<use xlink:href="#SVGID_7_"  overflow="visible"/>
		</clipPath>
		
			<line clip-path="url(#SVGID_8_)" fill="none" stroke="#FFFFFF" stroke-width="5.711" stroke-linecap="round" stroke-miterlimit="10" x1="433.427" y1="9.42" x2="433.427" y2="19.601"/>
	</g>
	<g>
		<defs>
			<rect id="SVGID_9_" x="0" width="524.602" height="116.416"/>
		</defs>
		<clipPath id="SVGID_10_">
			<use xlink:href="#SVGID_9_"  overflow="visible"/>
		</clipPath>
		<path clip-path="url(#SVGID_10_)" fill="#FFFFFF" d="M95.441,1.458H82.448L65.433,44.345L59.622,3.276
			c-0.143-0.961-0.722-1.819-2.094-1.819H45.831L29.256,44.823L22.747,3.276c-0.17-1.082-0.688-1.819-2.146-1.819H1.132
			c-1.374,0-1.643,1.495,0.012,1.795c3.756,0.682,6.982,2.934,8.063,9.291l8.241,46.438c0.313,1.767,1.288,2.813,3.512,2.813h14.649
			l14.226-38.658l4.526,35.846c0.224,1.771,1.158,2.813,3.381,2.813h14.725L96.607,3.527C96.987,2.578,97.017,1.458,95.441,1.458"/>
	</g>
	<g>
		<defs>
			<rect id="SVGID_11_" x="0" width="524.602" height="116.416"/>
		</defs>
		<clipPath id="SVGID_12_">
			<use xlink:href="#SVGID_11_"  overflow="visible"/>
		</clipPath>
		<path clip-path="url(#SVGID_12_)" fill="#FFFFFF" d="M220.088,1.458h-23.092c-1.373,0-1.633,1.495-0.182,1.795
			c3.06,0.632,6.48,3.903,4.006,9.096l-22.221,46.634c-0.874,1.769-0.551,2.812,1.674,2.812h12.47l4.62-10.558h23.432l1.875,7.746
			c0.398,1.771,1.478,2.812,3.699,2.812h12.529L222.82,3.592C222.395,2.208,221.75,1.458,220.088,1.458 M202.579,39.315
			l9.871-22.566l5.462,22.566H202.579z"/>
	</g>
	<g>
		<defs>
			<rect id="SVGID_13_" x="0" width="524.602" height="116.416"/>
		</defs>
		<clipPath id="SVGID_14_">
			<use xlink:href="#SVGID_13_"  overflow="visible"/>
		</clipPath>
		<path clip-path="url(#SVGID_14_)" fill="#FFFFFF" d="M300.001,21.601c0-18.194-11.784-20.143-25.242-20.143h-29.773
			c-1.375,0-1.673,1.494-0.094,1.793c3.593,0.682,6.751,3.254,6.014,9.441l-5.517,46.29c-0.242,1.771,0.456,2.813,2.679,2.813h12
			l1.964-16.476h11.757l7.355,13.662c0.97,1.804,2.302,2.813,4.525,2.813h12.752L288.094,42.61
			C297.226,38.293,300.001,29.534,300.001,21.601 M277.551,33.067H263.49l2.262-18.954h10.094c7.542,0,9.06,2.69,9.06,8.364
			C284.904,29.09,282.582,33.067,277.551,33.067"/>
	</g>
	<g>
		<defs>
			<rect id="SVGID_15_" x="0" width="524.602" height="116.416"/>
		</defs>
		<clipPath id="SVGID_16_">
			<use xlink:href="#SVGID_15_"  overflow="visible"/>
		</clipPath>
		<path clip-path="url(#SVGID_16_)" fill="#FFFFFF" d="M333.463,1.457h-27.369c-1.373,0-1.673,1.495-0.094,1.797
			c3.593,0.68,6.75,3.246,6.014,9.437l-5.517,46.291c-0.243,1.771,0.456,2.813,2.679,2.813h19.02
			c21.865,0,37.094-12.912,37.094-34.745C365.288,11.314,356.337,1.457,333.463,1.457 M329.25,48.688h-6.512l4.124-34.576h7.526
			c11.873,0,15.277,5.148,15.277,13.054C349.667,41.082,342.472,48.688,329.25,48.688"/>
	</g>
	<g>
		<defs>
			<rect id="SVGID_17_" x="0" width="524.602" height="116.416"/>
		</defs>
		<clipPath id="SVGID_18_">
			<use xlink:href="#SVGID_17_"  overflow="visible"/>
		</clipPath>
		<path clip-path="url(#SVGID_18_)" fill="#FFFFFF" d="M178.36,3.273c0.175-1.133-0.497-1.816-1.57-1.816H130.6l-1.17,9.845
			c-0.214,1.771,0.455,2.811,2.678,2.811h25.519l-32.878,36.455l-1.003,8.414c-0.214,1.799,0.456,2.813,2.68,2.813h45.583
			l1.348-11.288c0.13-1.192-0.499-1.817-1.572-1.817h-27.108l32.542-35.938L178.36,3.273z"/>
	</g>
	<g>
		<defs>
			<rect id="SVGID_19_" x="0" width="524.602" height="116.416"/>
		</defs>
		<clipPath id="SVGID_20_">
			<use xlink:href="#SVGID_19_"  overflow="visible"/>
		</clipPath>
		<path clip-path="url(#SVGID_20_)" fill="#FFFFFF" d="M118.294,1.458h-13.243l-6.856,57.523c-0.244,1.771,0.454,2.813,2.68,2.813
			h12l6.991-58.521C120.038,2.14,119.367,1.458,118.294,1.458"/>
	</g>
	<g>
		<defs>
			<rect id="SVGID_21_" x="0" width="524.602" height="116.416"/>
		</defs>
		<clipPath id="SVGID_22_">
			<use xlink:href="#SVGID_21_"  overflow="visible"/>
		</clipPath>
		<path clip-path="url(#SVGID_22_)" fill="#FF282F" d="M517.193,61.771H498.32l-11.214-38.004h-0.332
			c-0.802,8.047-5.396,38.004-5.396,38.004h-14.436l7.408-60.644h18.873l11.09,36.911h0.373c0.803-6.525,5.479-36.911,5.479-36.911
			h14.436L517.193,61.771z"/>
	</g>
	<g>
		<defs>
			<rect id="SVGID_23_" x="0" width="524.602" height="116.416"/>
		</defs>
		<clipPath id="SVGID_24_">
			<use xlink:href="#SVGID_23_"  overflow="visible"/>
		</clipPath>
		
			<line clip-path="url(#SVGID_24_)" fill="none" stroke="#FFFFFF" stroke-width="6" stroke-linecap="round" stroke-miterlimit="10" x1="383.666" y1="4.27" x2="383.666" y2="59.127"/>
	</g>
</g>
</svg>
