<?xml version="1.0" encoding="utf-8"?>
<!-- Generator: Adobe Illustrator 16.0.0, SVG Export Plug-In . SVG Version: 6.00 Build 0)  -->
<!DOCTYPE svg PUBLIC "-//W3C//DTD SVG 1.1//EN" "http://www.w3.org/Graphics/SVG/1.1/DTD/svg11.dtd">
<svg version="1.1" id="Layer_1" xmlns="http://www.w3.org/2000/svg" xmlns:xlink="http://www.w3.org/1999/xlink" x="0px" y="0px"
	 width="175.464px" height="175.465px" viewBox="0 0 175.464 175.465" enable-background="new 0 0 175.464 175.465"
	 xml:space="preserve">
<g>
	<g>
		<path fill="#003057" d="M10.005,149.095l0.585,1.681C10.517,150.594,10.298,150.009,10.005,149.095 M33.732,110.742
			c1.061-9.104,4.644-14.185,11.37-19.413c9.652-7.057,21.681-3.071,21.681-3.071V64.531c2.924-0.073,5.85,0.11,8.737,0.548v30.528
			c0,0-12.028-3.984-21.68,3.071c-6.728,5.228-10.311,10.31-11.371,19.414c-0.036,4.935,0.841,11.406,4.936,16.963
			c-1.023-0.548-2.047-1.169-3.106-1.864C35.341,126.902,33.695,117.433,33.732,110.742 M125.278,20.659
			c-6.616-7.568-9.14-15.246-10.054-20.62h8.336c0,0-1.645,14.112,10.456,27.968l0.183,0.183
			C130.91,26.07,127.912,23.51,125.278,20.659 M165.459,42.156v29.906c0,0-10.64-0.438-18.536-2.522
			c-11.005-2.925-18.062-7.422-18.062-7.422s-4.898-3.217-5.264-3.437v61.787c0,3.437-0.914,12.028-3.657,19.194
			c-3.582,9.358-9.139,15.537-10.163,16.78c0,0-6.764,8.336-18.646,13.931c-10.712,5.045-20.145,4.935-22.96,5.045
			c0,0-16.27,0.657-30.93-9.25c-3.181-2.193-6.143-4.681-8.848-7.422l0.073,0.073c14.661,9.944,30.93,9.249,30.93,9.249
			c2.815-0.108,12.248,0,22.96-5.045c11.882-5.594,18.646-13.929,18.646-13.929c1.023-1.243,6.581-7.422,10.163-16.782
			c2.742-7.165,3.656-15.757,3.656-19.193v-61.75c0.402,0.22,5.266,3.437,5.266,3.437s7.056,4.497,18.06,7.422
			c7.897,2.083,18.537,2.522,18.537,2.522V41.314C160.341,42.156,163.447,42.375,165.459,42.156"/>
		<path fill="#003057" d="M156.685,41.278v23.435c0,0-10.64-0.439-18.536-2.523c-11.005-2.924-18.062-7.421-18.062-7.421
			s-4.898-3.218-5.265-3.437v61.787c0,3.437-0.913,12.028-3.656,19.194c-3.582,9.358-9.139,15.538-10.163,16.781
			c0,0-6.764,8.336-18.646,13.929c-10.712,5.046-20.146,4.936-22.96,5.046c0,0-16.27,0.658-30.931-9.25l-0.072-0.073
			c-1.535-1.572-2.998-3.217-4.351-4.936c-4.68-5.959-7.532-12.979-8.263-14.989v-0.037c-1.17-3.473-3.583-11.882-3.254-19.962
			c0.585-14.295,5.411-23.106,6.691-25.299c3.362-5.996,7.786-11.371,12.978-15.868c4.606-3.875,9.835-6.983,15.429-9.14
			c6.069-2.559,12.577-3.912,19.157-4.021v23.727c0,0-12.028-3.985-21.68,3.071c-6.728,5.229-10.311,10.311-11.37,19.414
			c-0.037,6.69,1.609,16.159,10.602,22.484c1.062,0.695,2.084,1.315,3.108,1.865c1.571,2.119,3.473,3.984,5.667,5.52
			c8.811,5.814,16.159,6.216,25.592,2.45c6.288-2.523,11.005-8.189,13.198-14.514c1.389-3.949,1.353-7.897,1.353-11.992V0.038
			h21.937c0.914,5.374,3.399,13.052,10.054,20.62c2.669,2.852,5.667,5.411,8.921,7.531c0.95,1.061,5.886,6.179,12.248,9.36
			C149.664,39.194,153.139,40.438,156.685,41.278"/>
	</g>
</g>
</svg>
