<?xml version="1.0" encoding="utf-8"?>
<!-- Generator: Adobe Illustrator 16.0.0, SVG Export Plug-In . SVG Version: 6.00 Build 0)  -->
<!DOCTYPE svg PUBLIC "-//W3C//DTD SVG 1.1//EN" "http://www.w3.org/Graphics/SVG/1.1/DTD/svg11.dtd">
<svg version="1.1" id="Layer_1" xmlns="http://www.w3.org/2000/svg" xmlns:xlink="http://www.w3.org/1999/xlink" x="0px" y="0px"
	 width="204.662px" height="204.662px" viewBox="0 0 204.662 204.662" enable-background="new 0 0 204.662 204.662"
	 xml:space="preserve">
<g>
	<defs>
		<rect id="SVGID_1_" x="-1067.354" y="-0.005" width="2417.936" height="204.672"/>
	</defs>
	<clipPath id="SVGID_2_">
		<use xlink:href="#SVGID_1_"  overflow="visible"/>
	</clipPath>
	<path clip-path="url(#SVGID_2_)" fill="#FFFFFF" d="M203.082,39.847c-7.406,3.292-15.379,5.511-23.742,6.509
		c8.535-5.117,15.084-13.213,18.172-22.869c-7.984,4.738-16.838,8.178-26.251,10.031c-7.543-8.034-18.282-13.055-30.17-13.055
		c-22.831,0-41.342,18.507-41.342,41.334c0,3.243,0.367,6.392,1.071,9.423c-34.363-1.724-64.817-18.185-85.206-43.192
		c-3.557,6.1-5.597,13.209-5.597,20.783c0,14.339,7.298,26.993,18.389,34.406c-6.775-0.212-13.155-2.076-18.726-5.174
		c-0.003,0.174-0.003,0.348-0.003,0.522c0,20.036,14.246,36.731,33.16,40.534c-3.477,0.939-7.123,1.446-10.893,1.446
		c-2.666,0-5.256-0.263-7.777-0.744c5.26,16.425,20.527,28.386,38.613,28.713c-14.148,11.079-31.972,17.688-51.339,17.688
		c-3.34,0-6.629-0.188-9.86-0.575c18.294,11.729,40.029,18.571,63.371,18.571c76.031,0,117.611-62.988,117.611-117.615
		c0-1.791-0.051-3.576-0.125-5.347C190.539,55.416,197.535,48.136,203.082,39.847"/>
</g>
</svg>
