<?xml version="1.0" encoding="utf-8"?>
<!-- Generator: Adobe Illustrator 16.0.0, SVG Export Plug-In . SVG Version: 6.00 Build 0)  -->
<!DOCTYPE svg PUBLIC "-//W3C//DTD SVG 1.1//EN" "http://www.w3.org/Graphics/SVG/1.1/DTD/svg11.dtd">
<svg version="1.1" id="Layer_1" xmlns="http://www.w3.org/2000/svg" xmlns:xlink="http://www.w3.org/1999/xlink" x="0px" y="0px"
	 width="80.801px" height="83.124px" viewBox="0 0 80.801 83.124" enable-background="new 0 0 80.801 83.124" xml:space="preserve">
<g>
	<defs>
		<rect id="SVGID_1_" y="0" width="80.801" height="83.124"/>
	</defs>
	<clipPath id="SVGID_2_">
		<use xlink:href="#SVGID_1_"  overflow="visible"/>
	</clipPath>
	<path clip-path="url(#SVGID_2_)" fill="#FFFFFF" d="M46.413,1.998c-0.134-0.099-0.264-0.203-0.402-0.296
		c-0.151-0.101-0.309-0.19-0.465-0.282c-0.127-0.076-0.251-0.156-0.382-0.226c-0.158-0.084-0.321-0.156-0.481-0.232
		c-0.139-0.064-0.272-0.133-0.414-0.192c-0.157-0.065-0.318-0.118-0.479-0.175c-0.15-0.054-0.3-0.112-0.454-0.159
		c-0.163-0.049-0.327-0.085-0.491-0.126c-0.155-0.039-0.309-0.083-0.467-0.114c-0.194-0.039-0.391-0.063-0.587-0.09
		c-0.13-0.018-0.258-0.043-0.39-0.056c-0.666-0.066-1.336-0.066-2.002,0c-0.132,0.013-0.26,0.038-0.39,0.056
		c-0.196,0.027-0.392,0.051-0.587,0.09c-0.158,0.031-0.311,0.075-0.466,0.114c-0.164,0.04-0.329,0.077-0.492,0.126
		c-0.154,0.047-0.302,0.105-0.453,0.159c-0.161,0.057-0.322,0.11-0.48,0.175c-0.14,0.058-0.274,0.127-0.41,0.191
		c-0.163,0.076-0.326,0.148-0.485,0.233c-0.13,0.07-0.254,0.15-0.38,0.225c-0.157,0.093-0.315,0.181-0.467,0.283
		c-0.138,0.093-0.268,0.197-0.402,0.296c-0.131,0.097-0.264,0.188-0.391,0.292c-0.226,0.186-0.441,0.384-0.65,0.588
		c-0.028,0.028-0.059,0.051-0.088,0.079l-30.3,30.301c-3.944,3.945-3.944,10.339,0,14.284c3.944,3.944,10.339,3.944,14.283,0
		L30.3,34.482v38.542c0,5.577,4.522,10.1,10.1,10.1s10.1-4.522,10.1-10.1V34.482l13.06,13.059c3.943,3.944,10.339,3.944,14.282,0
		c1.973-1.972,2.958-4.557,2.958-7.142s-0.985-5.17-2.958-7.142l-30.3-30.301c-0.028-0.028-0.06-0.051-0.088-0.079
		c-0.209-0.204-0.424-0.402-0.649-0.588C46.677,2.186,46.544,2.094,46.413,1.998"/>
</g>
</svg>
