<?xml version="1.0" encoding="utf-8"?>
<!-- Generator: Adobe Illustrator 16.0.0, SVG Export Plug-In . SVG Version: 6.00 Build 0)  -->
<!DOCTYPE svg PUBLIC "-//W3C//DTD SVG 1.1//EN" "http://www.w3.org/Graphics/SVG/1.1/DTD/svg11.dtd">
<svg version="1.1" id="Layer_1" xmlns="http://www.w3.org/2000/svg" xmlns:xlink="http://www.w3.org/1999/xlink" x="0px" y="0px"
	 width="204.67px" height="204.662px" viewBox="0 0 204.67 204.662" enable-background="new 0 0 204.67 204.662"
	 xml:space="preserve">
<g>
	<defs>
		<rect id="SVGID_1_" x="-2213.266" y="-0.005" width="2417.936" height="204.672"/>
	</defs>
	<clipPath id="SVGID_2_">
		<use xlink:href="#SVGID_1_"  overflow="visible"/>
	</clipPath>
	<path clip-path="url(#SVGID_2_)" fill="#FFFFFF" d="M202.625,61.405c0,0-1.998-14.104-8.133-20.312
		c-7.785-8.153-16.51-8.192-20.51-8.67c-28.631-2.071-71.602-2.071-71.602-2.071h-0.096c0,0-42.967,0-71.602,2.071
		c-4,0.478-12.721,0.515-20.506,8.67c-6.137,6.208-8.135,20.312-8.135,20.312S0,77.968,0,94.534v15.53
		c0,16.558,2.043,33.124,2.043,33.124s2,14.097,8.135,20.31c7.789,8.158,18.016,7.9,22.566,8.754
		c16.377,1.574,69.594,2.059,69.594,2.059s43.004-0.063,71.646-2.135c4.004-0.479,12.727-0.517,20.508-8.674
		c6.141-6.218,8.141-20.31,8.141-20.31s2.037-16.57,2.037-33.129V94.531C204.67,77.968,202.625,61.405,202.625,61.405
		 M78.617,131.566l-0.008-62.887l60.471,31.549L78.617,131.566z"/>
</g>
</svg>
